<svg xmlns="http://www.w3.org/2000/svg" fill="none" viewBox="0 0 158 13"><path fill="#000" d="M0 0h12.9v12.9H0V0Zm11.2 5.9v-.6c0-.1 0-.2-.1-.3-.1 0-.2-.1-.3-.1-.2-.1-.4-.2-.7-.3-.3-.1-.6-.2-.8-.4-.2-.1-.4-.3-.4-.5 0-.3-.2-.5-.4-.6-.2-.2-.5-.2-.8-.1h-.6l-.3-.1h-.1l-.2-.1c-.4-.1-.6-.2-1.3-.1-.7.2-1.3.5-1.9 1.1L1.6 5.6h1.5l-.9 1h1.6l-.9 1h1.3l-.4 1.1c1.6 1.6 3.3 2 3.3 2 0-.4.1-2.2.2-2.5 0-.1.1-.3.2-.4.2-.4.5-.5.9-.5.3 0 .7.1 1 .2.2.1.4.1.6 0 .1-.1.3-.2.4-.3 0 0 .1-.1.1 0 .1 0 .3-.1.3-.2s.1-.2.1-.3c.3-.3.3-.5.3-.8Zm13.9-2.93h-1.02v6.26h.98V10h-2.78v-.77h.92V4.26h-.05L20.53 9.6h-.47L17.4 4.23h-.05v5h.94V10h-2.76v-.77h.98V2.97h-1.02V2.2h1.79l3.03 6.1h.05l2.95-6.1h1.8v.77Zm8.46 3.12c0 2.29-1.49 3.91-3.95 3.91H26.1v-.76h.98V2.96h-.98V2.2h3.49c2.54 0 3.98 1.63 3.98 3.89Zm-.93.01c0-1.88-1.08-3.14-3.06-3.14h-1.62v6.28h1.62c1.98 0 3.06-1.2 3.06-3.14Zm9.7-3.13h-.96V10h-.57l-4.52-6.14h-.05v5.37h1.24V10h-2.98v-.77h.9V2.97h-1.03V2.2h1.68l4.44 6.01h.05V2.97h-1.18V2.2h2.99v.77Zm9.1 4.22c0 1.42-.68 2.93-2.37 2.93-.84 0-1.54-.36-1.88-1l-.12.88h-.84c.08-.47.17-1.03.17-1.56V2.43h-.92v-.69h1.76v4.02a2 2 0 0 1 1.91-1.2c1.33 0 2.3.94 2.3 2.63Zm-.89.09c0-1.34-.7-2-1.6-2-1.02 0-1.67.92-1.7 1.7v.81c0 .9.71 1.61 1.64 1.61 1.17 0 1.66-1.02 1.66-2.12Zm4.76-2.72c.37 0 .65.06.91.28l.2 1.34-.68.09-.2-.91a1.17 1.17 0 0 0-.41-.08c-.63 0-1.1.58-1.1 1.4v2.64h1.24V10h-3v-.68h.93V5.34h-.96v-.68h1.75v.96c.2-.6.7-1.06 1.32-1.06Zm7.34 2.76c0 1.62-1.03 2.8-2.67 2.8-1.62 0-2.6-1.14-2.6-2.75 0-1.56.92-2.83 2.64-2.83 1.74 0 2.63 1.27 2.63 2.78Zm-.89 0c0-1.23-.64-2.06-1.76-2.06s-1.74.88-1.74 2.06c0 1.17.6 2.08 1.74 2.08 1.14 0 1.76-.89 1.76-2.09Zm10.29-1.98h-.62L69.85 10h-.65l-1.63-4.08h-.06L65.91 10h-.62l-1.63-4.66h-.59v-.68h2.52v.68h-1.02l1.12 3.38h.06l1.58-4.06h.57l1.66 4.06h.06l.99-3.38h-.97v-.68h2.4v.68Zm4.77 3.11c0 1.05-.98 1.67-2.27 1.67-.75 0-1.57-.23-2.02-.53l.16-1.21.68.07-.04.71c.35.17.74.26 1.19.26.74 0 1.44-.28 1.44-.9 0-1.46-3.35-.34-3.35-2.42 0-1.13 1-1.55 1.98-1.55.73 0 1.42.23 1.86.5l.13 1.24-.7.09-.13-.87a2.26 2.26 0 0 0-1.09-.26c-.67 0-1.15.24-1.15.79 0 1.4 3.31.29 3.31 2.41Zm5.7.01c-.15.92-.93 1.66-2.25 1.66-1.51 0-2.52-.98-2.52-2.71 0-1.66.94-2.86 2.45-2.86 1.46 0 2.26 1.08 2.27 2.34 0 .2-.03.42-.07.64h-3.76c.05 1.19.64 1.87 1.7 1.87.83 0 1.3-.43 1.47-1.1l.7.16Zm-.94-1.56c.08-.79-.36-1.65-1.4-1.65-.99 0-1.42.75-1.53 1.65h2.93Zm4.76-2.34c.37 0 .65.06.91.28l.2 1.34-.68.09-.2-.91a1.17 1.17 0 0 0-.41-.08c-.62 0-1.1.58-1.1 1.4v2.64h1.24V10h-3v-.68h.93V5.34h-.96v-.68H85v.96c.2-.6.7-1.06 1.32-1.06Zm2.33 2.3h2.77v.74h-2.77v-.73Zm8.6 1.34c-.14.94-.77 1.92-2.25 1.92-1.47 0-2.42-1-2.42-2.71 0-1.48.84-2.86 2.5-2.86.7 0 1.28.15 1.82.55l.2 1.29-.7.08-.2-.9c-.32-.2-.68-.3-1.14-.3-1.14 0-1.6.94-1.6 2.09 0 1.28.58 2.04 1.64 2.04.83 0 1.28-.48 1.44-1.36l.72.16Zm6.13-.88c0 1.62-1.03 2.8-2.68 2.8-1.62 0-2.59-1.14-2.59-2.75 0-1.56.91-2.83 2.64-2.83 1.74 0 2.63 1.27 2.63 2.78Zm-.89 0c0-1.23-.65-2.06-1.76-2.06-1.12 0-1.74.88-1.74 2.06 0 1.17.6 2.08 1.74 2.08 1.14 0 1.76-.89 1.76-2.09ZM114.08 10h-2.56v-.68h.78V6.83c0-1.15-.5-1.57-1.21-1.57-.99 0-1.51.94-1.54 1.6v2.46h.93V10h-2.55v-.68h.77V6.83c0-1.16-.5-1.57-1.19-1.57-1 0-1.52.9-1.55 1.58v2.48h.99V10h-2.76v-.68h.93V5.34h-.94v-.68h1.78v1c.35-.65.94-1.1 1.8-1.1.82 0 1.48.39 1.7 1.28a2 2 0 0 1 1.9-1.29c1.01 0 1.78.61 1.78 2.03v2.74h.94V10Zm6.25-2.82c0 1.43-.7 2.94-2.43 2.94a2 2 0 0 1-1.77-.9v2.65h1.24v.69h-3.03v-.69h.95V5.34h-.96v-.68h1.8v1.12c.33-.65.91-1.23 1.9-1.23 1.37 0 2.3.97 2.3 2.63Zm-.89.07c0-1.28-.7-1.98-1.63-1.98-.96 0-1.64.94-1.68 1.75v.8c0 .9.71 1.58 1.6 1.58 1.2 0 1.71-1 1.71-2.15Zm2.32-2.18a3.28 3.28 0 0 1 1.88-.52c1.24 0 1.9.59 1.9 1.79v2.54c0 .4.15.58.46.58.11 0 .26-.02.36-.07l.02.55c-.2.1-.45.18-.7.18-.62 0-.96-.42-.97-1.08v-.02c-.34.57-.96 1.1-1.82 1.1-.71 0-1.63-.36-1.63-1.5 0-1.34 1.3-1.64 2.5-1.64.32 0 .66.02.95.04v-.48c0-.76-.25-1.3-1.21-1.3-.36 0-.71.07-1.03.22l-.2.93-.7-.09.19-1.23ZM124.7 8v-.41c-.3-.03-.64-.06-1-.06-.79 0-1.57.17-1.57 1 0 .68.53.9 1 .9.74 0 1.5-.56 1.57-1.43Zm6.27.56c-.15 1.03-.73 1.56-1.7 1.56-1.06 0-1.65-.65-1.65-1.7V5.34h-.86v-.67h.86V2.94h.84v1.72h2.09v.67h-2.09v2.99c0 .65.25 1.07.9 1.07.42 0 .82-.17.97-1.03l.64.2Zm.76-1.7h2.77v.74h-2.77v-.73Zm9.9 3.14h-1.77V8.92c-.35.64-.94 1.2-1.91 1.2-1.38 0-2.3-.98-2.3-2.65 0-1.43.68-2.92 2.42-2.92.78 0 1.44.35 1.79.97v-3.1h-1.3v-.68h2.14v7.58h.92V10Zm-1.77-2.36v-.86a1.56 1.56 0 0 0-1.6-1.5c-1.19 0-1.72 1-1.72 2.13 0 1.3.7 1.99 1.63 1.99.95 0 1.65-.96 1.69-1.76Zm2.9-2.57a3.28 3.28 0 0 1 1.88-.52c1.24 0 1.91.59 1.91 1.79v2.54c0 .4.15.58.46.58.1 0 .25-.02.36-.07v.55c-.18.1-.44.18-.69.18-.62 0-.96-.42-.97-1.08v-.02c-.34.57-.96 1.1-1.82 1.1-.71 0-1.62-.36-1.62-1.5 0-1.34 1.3-1.64 2.5-1.64.32 0 .65.02.94.04v-.48c0-.76-.25-1.3-1.21-1.3-.36 0-.7.07-1.03.22l-.2.93-.7-.09.19-1.23ZM145.72 8v-.41c-.3-.03-.63-.06-1-.06-.79 0-1.57.17-1.57 1 0 .68.53.9 1 .9.74 0 1.51-.56 1.57-1.43Zm6.27.56c-.14 1.03-.73 1.56-1.7 1.56-1.06 0-1.65-.65-1.65-1.7V5.34h-.86v-.67h.86V2.94h.84v1.72h2.09v.67h-2.09v2.99c0 .65.25 1.07.9 1.07.42 0 .82-.17.97-1.03l.64.2Zm1.03-3.5a3.28 3.28 0 0 1 1.89-.5c1.23 0 1.9.58 1.9 1.78v2.54c0 .4.15.58.46.58.1 0 .25-.02.36-.07l.01.55c-.19.1-.44.18-.7.18-.62 0-.95-.42-.97-1.08v-.02c-.33.57-.96 1.1-1.82 1.1-.7 0-1.62-.36-1.62-1.5 0-1.34 1.3-1.64 2.5-1.64.32 0 .66.02.94.04v-.48c0-.76-.25-1.3-1.2-1.3-.37 0-.72.07-1.04.22l-.2.93-.7-.09.2-1.23ZM155.97 8v-.41c-.3-.03-.63-.06-1-.06-.78 0-1.56.17-1.56 1 0 .68.53.9 1 .9.74 0 1.5-.56 1.56-1.43Z"/></svg>